<svg width="91" height="91" viewBox="0 0 91 91" fill="none" xmlns="http://www.w3.org/2000/svg">
<circle cx="45.5" cy="45.5" r="45.5" fill="#D9D9D9"/>
<path d="M38.91 17.85C39.85 17.85 40.62 17.82 41.22 17.76V18.36C40.72 18.56 40.23 18.95 39.75 19.53C39.29 20.09 38.9 20.89 38.58 21.93L33.3 39.06C33.08 39.04 32.73 39.03 32.25 39.03C31.77 39.03 31.42 39.04 31.2 39.06L26.79 25.68L22.35 39.06C22.13 39.04 21.78 39.03 21.3 39.03C20.82 39.03 20.47 39.04 20.25 39.06L13.53 20.28C13.29 19.62 13 19.14 12.66 18.84C12.32 18.54 11.98 18.38 11.64 18.36V17.76C12.84 17.82 14.33 17.85 16.11 17.85C17.79 17.85 19.02 17.82 19.8 17.76V18.36C19.1 18.46 18.75 18.85 18.75 19.53C18.75 19.85 18.84 20.3 19.02 20.88L23.4 33.57L26.43 24.63L24.9 19.98C24.7 19.4 24.46 19 24.18 18.78C23.92 18.54 23.61 18.4 23.25 18.36V17.76C24.37 17.82 25.8 17.85 27.54 17.85C29.5 17.85 30.94 17.82 31.86 17.76V18.36C31.14 18.38 30.62 18.47 30.3 18.63C29.98 18.77 29.82 19.05 29.82 19.47C29.82 19.83 29.92 20.3 30.12 20.88L34.23 33.42L37.08 24.36C37.54 22.86 37.77 21.7 37.77 20.88C37.77 20.02 37.55 19.4 37.11 19.02C36.69 18.62 36.05 18.4 35.19 18.36V17.76C36.55 17.82 37.79 17.85 38.91 17.85Z" fill="black"/>
<path d="M69.7 62.84C72.3 63.04 74.21 63.64 75.43 64.64C76.65 65.64 77.26 66.82 77.26 68.18C77.26 70.04 76.53 71.48 75.07 72.5C73.61 73.5 71.58 74 68.98 74C68.4 74 67.91 73.99 67.51 73.97C66.19 73.93 64.9 73.91 63.64 73.91C61.58 73.91 60.04 73.94 59.02 74V73.4C59.68 73.36 60.16 73.28 60.46 73.16C60.78 73.04 60.99 72.81 61.09 72.47C61.21 72.13 61.27 71.58 61.27 70.82V55.94C61.27 55.18 61.21 54.63 61.09 54.29C60.99 53.95 60.78 53.72 60.46 53.6C60.16 53.48 59.68 53.4 59.02 53.36V52.76C60.04 52.82 61.56 52.85 63.58 52.85L66.91 52.82C67.31 52.8 67.77 52.79 68.29 52.79C70.69 52.79 72.52 53.22 73.78 54.08C75.06 54.94 75.7 56.08 75.7 57.5C75.7 58.66 75.19 59.74 74.17 60.74C73.17 61.74 71.68 62.42 69.7 62.78V62.84ZM67.9 53.36C67.36 53.36 66.96 53.43 66.7 53.57C66.46 53.71 66.29 53.96 66.19 54.32C66.09 54.68 66.04 55.22 66.04 55.94V62.72H67.33C68.63 62.72 69.54 62.28 70.06 61.4C70.58 60.5 70.84 59.31 70.84 57.83C70.84 56.33 70.6 55.21 70.12 54.47C69.66 53.73 68.92 53.36 67.9 53.36ZM68.11 73.31C70.89 73.31 72.28 71.56 72.28 68.06C72.28 66.48 71.88 65.28 71.08 64.46C70.28 63.64 69.02 63.23 67.3 63.23H66.04V70.82C66.04 71.54 66.09 72.07 66.19 72.41C66.29 72.75 66.48 72.99 66.76 73.13C67.06 73.25 67.51 73.31 68.11 73.31Z" fill="black"/>
<rect x="56.5" y="19.5" width="23" height="18" fill="white" stroke="black"/>
<rect x="13.5" y="56.5" width="23" height="18" fill="#1C1C1C" stroke="white"/>
<path d="M41.5 39.5L51 52" stroke="black"/>
<path d="M51.5 41C51.5 41.8284 50.8284 42.5 50 42.5C49.1716 42.5 48.5 41.8284 48.5 41C48.5 40.1716 49.1716 39.5 50 39.5C50.8284 39.5 51.5 40.1716 51.5 41Z" fill="black"/>
<path d="M51.5 41C51.5 41.8284 50.8284 42.5 50 42.5C49.1716 42.5 48.5 41.8284 48.5 41C48.5 40.1716 49.1716 39.5 50 39.5C50.8284 39.5 51.5 40.1716 51.5 41Z" fill="black"/>
<path d="M44 50.5C44 51.3284 43.3284 52 42.5 52C41.6716 52 41 51.3284 41 50.5C41 49.6716 41.6716 49 42.5 49C43.3284 49 44 49.6716 44 50.5Z" fill="black"/>
<path d="M44 50.5C44 51.3284 43.3284 52 42.5 52C41.6716 52 41 51.3284 41 50.5C41 49.6716 41.6716 49 42.5 49C43.3284 49 44 49.6716 44 50.5Z" fill="black"/>
</svg>
